# xmcd
#
# Track frame offsets:
#	150
#	14893
#	30832
#	50567
#	65824
#	78166
#	98946
#	111972
#	129201
#	141788
#	153685
#	169907
#	186787
#	202844
#	215147
#	231319
#
# Disc length: 3284 seconds
#
# Revision: 1
# Processed by: cddbd v1.5.2PL0 Copyright (c) Steve Scherf et al.
# Submitted via: EZCDAudioConverter 1.3.4.1
#
DISCID=e50cd210
DTITLE=Billiy Preston - Encouraging Words
DYEAR=2010
DGENRE=
TTITLE0=Right Now
TTITLE1=Little Girl
TTITLE2=Use What You Got
TTITLE3=My Sweet Lord
TTITLE4=Let the Music Play
TTITLE5=The Same Thing Again
TTITLE6=I've Got a Feeling
TTITLE7=Sing One For the Lord
TTITLE8=When You Are Mine
TTITLE9=I Don't Want You to Pretend
TTITLE10=Encouraging Words
TTITLE11=All Things (Must) Pass
TTITLE12=Your've Been Acting Strange
TTITLE13=As Long As I Got My Baby
TTITLE14=All That I Got (I'm Gonna Give It To You)
TTITLE15=How Long Has the Train Been Gone
EXTD=
EXTT0=
EXTT1=
EXTT2=
EXTT3=
EXTT4=
EXTT5=
EXTT6=
EXTT7=
EXTT8=
EXTT9=
EXTT10=
EXTT11=
EXTT12=
EXTT13=
EXTT14=
EXTT15=
PLAYORDER=
